HIERARCHY
ROOT Hips
{
  OFFSET -268.951 87.1254 -235.468
  CHANNELS 6 Xposition Yposition Zposition Zrotation Xrotation Yrotation
  JOINT ToSpine
  {
    OFFSET -0.0105055 1.38907 -7.13956
    CHANNELS 3 Zrotation Xrotation Yrotation
    JOINT Spine
    {
      OFFSET 0.0105055 10 1
      CHANNELS 3 Zrotation Xrotation Yrotation
      JOINT Spine1
      {
        OFFSET 0 12 1.60637
        CHANNELS 3 Zrotation Xrotation Yrotation
        JOINT Neck
        {
          OFFSET 0 27 2.26658
          CHANNELS 3 Zrotation Xrotation Yrotation
          JOINT Head
          {
            OFFSET 0 9 2.12705
            CHANNELS 3 Zrotation Xrotation Yrotation
            End Site
            {
              OFFSET 0 11 2
            }
          }
        }
        JOINT LeftShoulder
        {
          OFFSET 8 19.6109 2.86452
          CHANNELS 3 Zrotation Xrotation Yrotation
          JOINT LeftArm
          {
            OFFSET 12 1 0.681055
            CHANNELS 3 Zrotation Xrotation Yrotation
            JOINT LeftForeArm
            {
              OFFSET 19 0 -1.52608
              CHANNELS 3 Zrotation Xrotation Yrotation
              JOINT LeftHand
              {
                OFFSET 23 0 0
                CHANNELS 3 Zrotation Xrotation Yrotation
                End Site
                {
                  OFFSET 10 0 0
                }
              }
            }
          }
        }
        JOINT RightShoulder
        {
          OFFSET -8 19.6109 2.86452
          CHANNELS 3 Zrotation Xrotation Yrotation
          JOINT RightArm
          {
            OFFSET -12 1 0.681055
            CHANNELS 3 Zrotation Xrotation Yrotation
            JOINT RightForeArm
            {
              OFFSET -19 0 -1.52608
              CHANNELS 3 Zrotation Xrotation Yrotation
              JOINT RightHand
              {
                OFFSET -23 0 0
                CHANNELS 3 Zrotation Xrotation Yrotation
                End Site
                {
                  OFFSET -10 0 0
                }
              }
            }
          }
        }
      }
    }
  }
  JOINT LeftUpLeg
  {
    OFFSET 9 -7.17245 0
    CHANNELS 3 Zrotation Xrotation Yrotation
    JOINT LeftLeg
    {
      OFFSET 0 -44.1113 0
      CHANNELS 3 Zrotation Xrotation Yrotation
      JOINT LeftFoot
      {
        OFFSET 0 -36.1829 0
        CHANNELS 3 Zrotation Xrotation Yrotation
        JOINT LeftToeBase
        {
          OFFSET 0 -4.84184 13
          CHANNELS 3 Zrotation Xrotation Yrotation
          End Site
          {
            OFFSET 0 1 6
          }
        }
      }
    }
  }
  JOINT RightUpLeg
  {
    OFFSET -9 -7.17245 0
    CHANNELS 3 Zrotation Xrotation Yrotation
    JOINT RightLeg
    {
      OFFSET 0 -44.0551 0
      CHANNELS 3 Zrotation Xrotation Yrotation
      JOINT RightFoot
      {
        OFFSET 0 -36.1469 0
        CHANNELS 3 Zrotation Xrotation Yrotation
        JOINT RightToeBase
        {
          OFFSET 0 -4.92256 13
          CHANNELS 3 Zrotation Xrotation Yrotation
          End Site
          {
            OFFSET 0 1 6
          }
        }
      }
    }
  }
}
MOTION
Frames:	14
Frame Time:	0.0333333
-116.013 80.5708 -112.331 2.39627 49.5643 -3.81863 0 0 0 19.1506 47.2543 -9.27008 -12.1805 0.567337 3.05349 29.2766 -30.121 1.32392 -22.0484 1.23799 7.1354 11.5042 -0.408298 -21.4377 -32.783 -13.882 -96.1681 4.4053 10.1139 -21.0816 -10.0726 0.561023 -6.35955 18.6427 6.16319 20.6036 -13.0961 -14.578 31.3421 2.62644 -55.4704 -2.97667 7.41489 0.141257 2.1797 81.993 -67.3737 117.897 -9.82468e-007 73.1251 -6.25926 25.3468 -25.6697 5.8658 1.56911 -16.3035 -4.76164 -70.1764 -52.5506 -83.9016 1.55474e-006 55.4485 30.6479 -9.70335 -15.745 -1.34486 5.4668 -21.4791 -5.44852 
-113.288 81.3892 -109.744 0.679127 48.4704 -0.672593 0 0 0 15.8706 45.8226 -7.98016 -8.02382 0.399832 2.07557 17.1882 -27.3835 0.813962 -13.2625 0.167134 4.62618 0.622793 1.73497 -18.1932 -21.275 -8.01588 -90.0845 5.55184 8.78917 -32.4623 -8.91934 0.504809 -6.46562 14.2641 5.85837 23.6541 -9.0773 -8.33245 25.3746 6.61251 -46.1778 3.17517 6.12534 0.154688 2.8905 69.2245 -69.7552 105.767 -1.3498e-006 72.0969 -7.86477 26.7852 -28.4642 6.91177 1.62645 -15.3686 -5.54139 -62.8419 -50.4738 -71.3924 2.08153e-007 50.1201 24.2146 -8.2219 -15.6661 -1.133 5.51807 -22.1774 -6.85321 
-110.213 82.1905 -106.796 -2.06915 46.7216 3.97466 0 0 0 13.0749 43.8055 -6.70281 -3.16439 0.493445 1.08713 7.22188 -23.8463 1.26005 -6.17366 -2.42245 3.03846 -8.39909 3.06182 -15.5916 -15.955 -0.267865 -82.9689 7.33007 7.39952 -44.9664 -9.25154 0.404905 -5.00119 11.2812 5.79586 27.1358 -4.44419 0.304289 17.2891 8.39103 -34.0454 8.8393 3.86887 0.191802 5.67418 51.5181 -70.8971 87.739 -8.9622e-007 70.9134 -9.8785 27.0438 -31.2972 7.70771 1.80525 -14.185 -7.27347 -53.692 -47.0454 -54.898 6.16164e-007 44.258 13.9295 -6.87876 -14.6629 -0.886074 5.45929 -22.8876 -9.36423 
-106.452 83.0229 -103.271 -4.70091 43.3143 9.37479 0 0 0 12.3042 40.9593 -5.53359 -0.920295 3.24989 0.902449 10.8583 -24.9898 1.79089 -9.67243 -2.09682 4.45733 -8.51035 3.17517 -16.1643 -17.6798 8.0149 -76.1754 8.95542 6.371 -54.8484 -8.18331 0.331288 -4.62866 13.1987 5.81372 24.697 0.747302 6.74879 10.3866 9.17755 -27.5331 15.1217 2.00813 0.104886 5.97915 27.8036 -68.3629 63.9337 -1.53004e-006 69.0271 -11.3288 30.5071 -33.3405 9.33672 1.70138 -15.9151 -6.16595 -45.6252 -41.3277 -39.238 -3.46226e-007 40.7472 4.92546 -13.8869 -7.31777 -0.892372 5.17183 -27.8864 -19.0139 
-102.184 83.5837 -99.3023 -7.5276 39.0386 15.2397 0 0 0 12.3968 38.007 -4.95775 2.59415 4.63932 -0.425194 12.8294 -23.0126 2.50115 -12.1741 -2.77163 5.96535 -14.1965 4.04381 -15.473 -12.0344 16.3789 -69.8077 8.79555 4.71321 -62.0296 -5.90105 0.229569 -4.45178 15.7281 5.89632 22.2555 8.46301 11.9072 2.78399 10.2582 -26.975 20.0718 1.07866 0.0660892 7.01205 11.4641 -61.6801 47.0078 1.41079e-006 66.6166 -12.7952 32.143 -36.0193 10.7016 2.0532 -17.1979 -9.84769 -39.1569 -37.5585 -24.6651 -2.02791e-007 45.7469 -10.2761 -20.9085 -3.85124 -0.710865 5.21795 -25.6146 -16.3993 
-97.9196 83.6649 -94.9691 -10.8265 34.5496 20.6115 0 0 0 12.6073 33.8067 -4.15041 6.18828 5.98473 -1.72206 14.6973 -20.1977 3.11142 -14.5436 -3.782 7.47842 -16.0286 4.23688 -14.9279 -13.192 23.3596 -60.4277 10.4315 3.50024 -71.6534 -6.73512 0.363292 -6.16799 18.6 5.8592 19.48 18.2776 12.2906 -7.27677 10.6297 -22.7453 25.8932 -0.309414 -0.0211384 7.81646 5.34906 -53.8723 38.5814 1.90497e-006 65.6522 -15.5007 35.3668 -38.1654 12.5879 2.01815 -17.4548 -9.50206 -31.5383 -38.5275 -11.236 9.46414e-007 60.093 -13.4755 -32.054 -2.62316 -0.753637 3.88641 -14.6535 -8.46358 
-94.0538 82.8199 -90.3217 -10.8334 29.5197 25.539 0 0 0 11.5933 30.9762 -4.7593 8.67611 4.21903 -3.66296 13.8457 -11.1144 2.77821 -14.8154 -8.2615 7.79592 -18.3733 4.57662 -14.6863 -10.9291 27.0251 -50.8095 14.2231 1.60169 -83.7071 -6.34613 0.340095 -6.12895 22.378 6.29449 18.1813 27.3547 9.47589 -22.5675 10.208 -16.3613 32.5888 -1.24793 -0.108514 9.93896 -0.786737 -44.6837 29.835 1.17824e-006 65.7879 -17.5708 36.9873 -40.2182 13.9633 1.96443 -18.316 -8.99312 -26.6962 -38.7075 -3.86602 -4.46664e-007 77.7277 -2.23578 -36.1864 -6.84105 -2.23747 4.32121 -16.6618 -6.97629 
-90.0788 81.9037 -85.7102 -9.86292 24.3911 29.2479 0 0 0 10.5527 28.2682 -5.21551 9.12665 4.78976 -5.00413 16.5029 -9.19461 2.78223 -16.7286 -7.61502 9.02285 -15.3634 3.92609 -14.0583 -6.03824 23.9242 -49.8515 20.9336 -1.48943 -93.8872 -7.04977 0.50035 -8.10924 22.6526 5.25346 14.4949 40.0715 5.09978 -34.8894 4.07019 -5.07573 38.8095 -5.31714 -0.450511 9.67911 -4.38716 -34.2601 23.8164 1.67619e-006 64.8441 -17.591 37.6517 -42.9524 15.2793 1.94351 -18.5376 -8.75479 -21.347 -41.1601 -1.76345 180 86.5558 174.53 -37.2113 -14.1661 -4.79061 4.8422 -18.628 -4.71422 
-85.8219 81.2355 -80.816 -10.7016 21.4733 33.4852 0 0 0 9.53061 24.2539 -7.10043 9.61326 5.36296 -7.77239 18.6532 -7.4157 4.98127 -17.3022 -6.82493 12.1296 -9.54599 2.79522 -12.9093 -2.17865 17.1663 -49.4902 19.9658 -3.53743 -99.6389 -4.87696 0.406958 -9.53429 21.2682 4.76339 13.5975 52.5022 4.11418 -45.1254 0.888068 -0.95765 42.8446 -6.53473 -0.52481 9.17339 -5.64854 -25.8257 19.4518 -1.4486e-006 62.0279 -17.7971 37.455 -44.2488 15.6951 1.89052 -20.4051 -8.13974 -16.812 -48.2798 -5.63744 -180 77.4883 162.119 -35.0774 -21.7384 -6.94534 4.36308 -16.9133 -7.38272 
-81.1112 81.0183 -75.1131 -14.5722 19.3011 36.6248 0 0 0 9.24032 20.0396 -8.9682 11.3134 5.58086 -10.5103 19.6784 -6.89945 8.40881 -16.7906 -5.60233 15.8316 -1.54262 1.52376 -11.9426 1.0558 11.1788 -48.2878 23.3525 -5.27457 -102.02 -3.65616 0.212756 -6.65845 16.0472 3.58859 12.1322 64.7484 5.62707 -51.9791 -4.1267 3.9717 46.1689 -5.96949 -0.521205 9.97094 -2.30996 -18.6817 18.7034 8.94591e-007 57.353 -20.0359 33.8181 -45.2899 14.4555 2.13732 -19.6407 -11.7414 -8.72878 -59.2082 -7.60352 -180 77.0494 160.423 -35.2575 -26.6487 -8.60799 4.39684 -17.209 -8.28181 
-74.9488 81.1862 -68.788 -17.9874 17.2425 37.8313 0 0 0 10.0923 17.058 -11.3123 12.6721 5.21828 -13.0833 19.0841 -7.60062 12.0921 -16.5032 -3.88711 19.2223 5.80077 0.479008 -10.6486 4.18436 9.04201 -46.0966 21.0355 -5.46355 -103.906 -3.08396 0.178828 -6.63573 10.0271 2.53804 11.0489 72.6282 8.25991 -58.4335 -15.8542 11.096 55.8757 -6.74503 -0.623338 10.5479 0.0491377 -9.17531 18.686 1.19207e-007 47.1794 -22.3803 28.3495 -41.1108 10.8208 2.02796 -23.437 -12.6336 3.03086 -68.1357 -3.40046 180 84.8982 164.176 -34.7934 -27.8725 -8.89145 4.51123 -17.5927 -7.2057 
-67.6158 82.0401 -62.2218 -20.7055 15.6417 37.1481 0 0 0 11.6215 16.3336 -12.8093 15.0471 2.81192 -14.3674 16.7033 -9.47412 15.7442 -16.7721 -1.77777 22.0916 9.98323 -0.038305 -9.93787 4.91688 9.64876 -44.8703 23.7525 -6.37518 -104.162 -3.60707 0.257861 -8.17529 7.4419 2.2834 11.5983 72.3277 10.4641 -63.9773 -27.6123 12.8589 66.9513 -4.76722 -0.460057 11.0182 -0.261476 1.80632 15.9015 6.86115e-008 30.9683 -21.3827 15.4188 -30.3263 4.20206 1.84987 -27.0137 -18.7675 17.5475 -72.9885 5.34138 -8.47044e-007 82.6547 -7.49193 -31.5249 -28.0923 -8.07881 4.48979 -17.205 -5.27724 
-59.1258 83.526 -54.8939 -21.9081 15.2782 34.3168 0 0 0 12.3309 14.7052 -12.9405 16.3072 2.03325 -14.1341 14.9611 -12.7183 18.9186 -16.9187 0.206459 24.3935 10.3379 -0.0836535 -10.5289 4.7855 11.9895 -43.4779 22.8156 -6.79558 -105.71 -3.22854 0.226067 -8.00872 8.31003 2.53346 12.4202 66.1688 13.1438 -65.0714 -37.8643 11.0619 76.1373 -6.12459 -0.652654 12.1539 -4.10617 10.8109 4.16613 -0.680243 15.7375 -8.96798 12.1225 -2.21474 0.235201 0.7556 -37.7584 -17.7184 31.432 -72.1975 16.074 4.49496e-007 70.6539 -3.14931 -27.811 -25.1512 -6.32239 4.34643 -16.4829 -4.39174 
-50.9816 84.2435 -47.3194 -21.4715 15.5508 30.6471 0 0 0 10.8883 14.064 -12.0099 17.3376 0.28215 -12.9607 12.441 -14.1871 21.5912 -14.932 0.42976 25.7823 5.76082 0.475036 -10.3899 2.18668 16.0489 -43.5081 25.5662 -7.40524 -105.078 -3.26494 0.24401 -8.54598 11.5037 3.35485 14.3161 56.21 14.9133 -60.6634 -38.675 7.52176 80.7121 -6.01796 -0.676005 12.8069 -6.98667 13.0415 4.31927 -1.44008 16.7612 -12.3621 12.0859 12.0946 -1.28509 0.606486 -11.2105 0.962 36.0253 -67.7981 20.0893 -5.8507e-009 64.1939 -0.327674 -24.8449 -24.6702 -5.51551 4.09935 -15.498 -5.35038 
